<?xml version="1.0" encoding="UTF-8" standalone="no"?>
<svg
   xmlns:dc="http://purl.org/dc/elements/1.1/"
   xmlns:cc="http://creativecommons.org/ns#"
   xmlns:rdf="http://www.w3.org/1999/02/22-rdf-syntax-ns#"
   xmlns:svg="http://www.w3.org/2000/svg"
   xmlns="http://www.w3.org/2000/svg"
   xmlns:sodipodi="http://sodipodi.sourceforge.net/DTD/sodipodi-0.dtd"
   xmlns:inkscape="http://www.inkscape.org/namespaces/inkscape"
   version="1.1"
   x="0px"
   y="0px"
   viewBox="0 0 81.276001 72.172997"
   enable-background="new 0 0 100 100"
   xml:space="preserve"
   id="bubbles"
   sodipodi:docname="noun_bubbles_1119882.svg"
   width="81.276001"
   height="72.172997"
   inkscape:version="0.92.3 (2405546, 2018-03-11)"><metadata
     id="metadata3839"><rdf:RDF><cc:Work
         rdf:about=""><dc:format>image/svg+xml</dc:format><dc:type
           rdf:resource="http://purl.org/dc/dcmitype/StillImage" /></cc:Work></rdf:RDF></metadata><defs
     id="defs3837" /><sodipodi:namedview
     pagecolor="#ffffff"
     bordercolor="#666666"
     borderopacity="1"
     objecttolerance="10"
     gridtolerance="10"
     guidetolerance="10"
     inkscape:pageopacity="0"
     inkscape:pageshadow="2"
     inkscape:window-width="1920"
     inkscape:window-height="1015"
     id="namedview3835"
     showgrid="false"
     inkscape:zoom="5.3400704"
     inkscape:cx="29.411592"
     inkscape:cy="24.240051"
     inkscape:window-x="0"
     inkscape:window-y="0"
     inkscape:window-maximized="1"
     inkscape:current-layer="coins" /><g
     id="g3827"
     transform="translate(-9.362,-13.914)"><path
       d="m 50.281,36.717 c -2.854,0 -5.594,0.492 -8.146,1.387 -2.089,-7.09 -8.602,-12 -16.04,-12 -9.227,0 -16.733,7.514 -16.733,16.748 0,9.084 7.279,16.484 16.31,16.713 -0.045,0.607 -0.076,1.219 -0.076,1.838 0,13.611 11.074,24.684 24.686,24.684 13.612,0 24.685,-11.072 24.685,-24.684 0,-13.612 -11.074,-24.686 -24.686,-24.686 z m -39.919,6.135 c 0,-8.684 7.058,-15.748 15.733,-15.748 7.018,0 13.161,4.65 15.103,11.352 C 32.911,41.748 26.816,49.4 25.764,58.568 17.242,58.389 10.362,51.416 10.362,42.852 Z m 39.919,42.234 c -13.061,0 -23.686,-10.625 -23.686,-23.684 0,-13.061 10.625,-23.686 23.686,-23.686 13.06,0 23.685,10.625 23.685,23.686 0,13.059 -10.625,23.684 -23.685,23.684 z"
       id="path3817"
       inkscape:connector-curvature="0"
       style="fill:#000000" /><path
       d="m 49.563,43.773 c -8.829,0 -16.013,7.184 -16.013,16.014 0,0.275 0.224,0.5 0.5,0.5 0.276,0 0.5,-0.225 0.5,-0.5 0,-8.279 6.734,-15.014 15.013,-15.014 0.276,0 0.5,-0.225 0.5,-0.5 0,-0.277 -0.224,-0.5 -0.5,-0.5 z"
       id="path3819"
       inkscape:connector-curvature="0"
       style="fill:#000000" /><path
       d="m 77.708,13.914 c -7.129,0 -12.929,5.799 -12.929,12.93 0,7.129 5.8,12.93 12.929,12.93 7.13,0 12.93,-5.801 12.93,-12.93 0,-7.131 -5.8,-12.93 -12.93,-12.93 z m 0,24.859 c -6.577,0 -11.929,-5.352 -11.929,-11.93 0,-6.578 5.352,-11.93 11.929,-11.93 6.578,0 11.93,5.352 11.93,11.93 0,6.578 -5.352,11.93 -11.93,11.93 z"
       id="path3821"
       inkscape:connector-curvature="0"
       style="fill:#000000" /><path
       d="m 77.152,18.129 c -4.672,0 -8.473,3.801 -8.473,8.475 0,0.275 0.224,0.5 0.5,0.5 0.276,0 0.5,-0.225 0.5,-0.5 0,-4.121 3.353,-7.475 7.473,-7.475 0.276,0 0.5,-0.223 0.5,-0.5 0,-0.275 -0.223,-0.5 -0.5,-0.5 z"
       id="path3823"
       inkscape:connector-curvature="0"
       style="fill:#000000" /><path
       d="m 25.834,30.834 c -6.019,0 -10.915,4.896 -10.915,10.914 0,0.277 0.224,0.5 0.5,0.5 0.276,0 0.5,-0.223 0.5,-0.5 0,-5.467 4.448,-9.914 9.915,-9.914 0.276,0 0.5,-0.225 0.5,-0.5 0,-0.277 -0.224,-0.5 -0.5,-0.5 z"
       id="path3825"
       inkscape:connector-curvature="0"
       style="fill:#000000" /></g></svg>
