<?xml version="1.0" encoding="UTF-8" standalone="no"?><svg xmlns="http://www.w3.org/2000/svg" xmlns:xlink="http://www.w3.org/1999/xlink"><symbol xml:space="preserve" id="noun_Bus_2101506" clip-rule="evenodd" fill-rule="evenodd" image-rendering="optimizeQuality" shape-rendering="geometricPrecision" text-rendering="geometricPrecision" viewBox="0 -65.13 287.27 287.27" xmlns="http://www.w3.org/2000/svg"><defs id="adefs3890"><style type="text/css" id="astyle3888">.afil0{fill:#000}</style></defs><g id="ag3894"><path class="afil0" d="M257 0H15C7 0 0 7 0 15v109c0 5 4 9 9 9h27c-1-2-1-4-1-6 0-20 16-36 36-36s36 16 36 36v6h84c-1-2-1-4-1-6 0-20 16-36 36-36s36 16 36 36v6h16c21 0 3-133-21-133zm-31 98c16 0 30 13 30 29s-14 30-30 30-29-14-29-30 13-29 29-29zm0 13c-9 0-16 7-16 16s7 16 16 16 16-7 16-16-7-16-16-16zm-155 0c9 0 16 7 16 16s-7 16-16 16-16-7-16-16 7-16 16-16zm0-13c16 0 29 13 29 29s-13 30-29 30-29-14-29-30 13-29 29-29zm185-88c9 7 18 47 20 81 0 2 0 4-3 4h-17c-4 0-7-3-8-6-3-18-29-31-39-31V10zm-57 48h-59V10h59zm-69 0H72V10h58zm-68 0H10V15c0-3 2-5 5-5h47z" id="apath3892" fill="#000"/></g></symbol><symbol viewBox="0 -1.77 90 90" id="noun_Coins_481819" xmlns="http://www.w3.org/2000/svg"><path d="M76.477 64.031c-3.022 1.848-6.55 3.284-10.4 4.264 4.517-3.931 6.953-8.681 6.953-13.721v-1.49c.64-.34 1.27-.692 1.878-1.063 3.583-2.19 6.362-4.772 8.245-7.607 1.471 2.147 2.245 4.443 2.245 6.788 0 4.756-3.168 9.312-8.92 12.83zm8.921-.782c0 3.775-2.002 7.422-5.702 10.525V67.44c2.254-1.467 4.163-3.095 5.702-4.848zm-7.236 11.71a28.34 28.34 0 01-1.685 1.12 34.654 34.654 0 01-5.385 2.65v-7.147c2.53-.878 4.903-1.951 7.07-3.208zm-8.604 4.337a45.186 45.186 0 01-7.07 1.807v-7.384a51.208 51.208 0 007.07-1.634zm-8.366-13.012a28.34 28.34 0 01-1.685 1.119 34.586 34.586 0 01-5.385 2.65v-7.146c2.53-.879 4.903-1.952 7.07-3.209zm-.239 15.06c-2.29.325-4.658.5-7.07.517v-6.824c.613-.209 1.215-.43 1.808-.661a57.554 57.554 0 005.262-.437zM49.913 53.88v-7.446a57.908 57.908 0 007.07-.477v7.406c-2.292.324-4.658.5-7.07.517zm-13.398 7.266c-8.721 0-16.887-2.056-22.993-5.79-5.752-3.516-8.92-8.072-8.92-12.829 0-4.607 2.981-9.024 8.397-12.494v5.235c0 6.419 3.95 12.37 11.122 16.754 6.818 4.17 15.837 6.465 25.393 6.465 1.23 0 2.449-.04 3.656-.114-4.969 1.807-10.681 2.773-16.655 2.773zm16.073 9.475a45.144 45.144 0 01-7.07 1.808v-7.385a51.208 51.208 0 007.07-1.634zm-.239 11.23a52.797 52.797 0 01-7.07-.613V77.13a51.514 51.514 0 007.07-1.6zm-8.366-9.181c-2.29.324-4.657.5-7.07.517V65.74a57.902 57.902 0 007.07-.477zm-.238 8.303a44.294 44.294 0 01-7.07-1.935V77.79c2.4-.007 4.765-.158 7.07-.448zm-8.366-7.797a52.733 52.733 0 01-7.07-.614v-7.4a57.5 57.5 0 007.07.568zm-8.604-.88a44.294 44.294 0 01-7.07-1.934v-7.18c2.25.735 4.62 1.313 7.07 1.737zm-8.604-2.54a34.151 34.151 0 01-4.649-2.352 27.525 27.525 0 01-2.422-1.666v-6.47l.022.014c2.148 1.314 4.515 2.44 7.049 3.369v7.106zm-8.605-5.3c-3.227-2.96-4.964-6.365-4.964-9.881v-.658c1.368 1.558 3.029 3.017 4.964 4.352zm8.035-29.846c1.369 1.557 3.03 3.017 4.965 4.353v6.186c-3.228-2.959-4.965-6.365-4.965-9.881zm13.569 8.734v7.106a34.104 34.104 0 01-4.648-2.354A27.449 27.449 0 0124.1 46.43v-6.47l.02.014c2.15 1.314 4.517 2.44 7.05 3.369zm8.604 2.268v7.378a44.305 44.305 0 01-7.07-1.935v-7.18c2.25.735 4.62 1.313 7.07 1.737zm8.604.81v7.447a52.739 52.739 0 01-7.07-.614v-7.4a57.5 57.5 0 007.07.568zm18.743 4.326v-7.148c2.531-.878 4.903-1.951 7.07-3.208v6.585c-.536.383-1.093.758-1.684 1.12-1.653 1.01-3.461 1.893-5.386 2.65zm-8.604 2.373v-7.384a51.133 51.133 0 007.07-1.634v7.21a45.182 45.182 0 01-7.07 1.808zm4.21 5.644a29.705 29.705 0 003.787-2.906c.64-.213 1.268-.44 1.889-.677-.202 3.558-2.176 6.98-5.677 9.918zm18.7-24.155v.658c0 3.774-2.002 7.421-5.702 10.524v-6.335c2.254-1.467 4.163-3.095 5.702-4.847zM26.522 10.39c6.106-3.733 14.271-5.789 22.992-5.789s16.887 2.056 22.993 5.79c5.752 3.516 8.92 8.073 8.92 12.829 0 4.755-3.168 9.312-8.92 12.829-6.106 3.733-14.272 5.789-22.993 5.789-8.72 0-16.886-2.056-22.992-5.79-5.753-3.516-8.92-8.073-8.92-12.828 0-4.756 3.167-9.313 8.92-12.83zM85.36 39.771a15.57 15.57 0 00.67-4.504V23.22c0-6.42-3.95-12.37-11.122-16.755C68.089 2.296 59.07 0 49.514 0c-9.556 0-18.575 2.296-25.393 6.465-6.886 4.21-10.82 9.863-11.122 15.989v2.255c-.64.341-1.27.692-1.877 1.063C4.236 29.982.302 35.635 0 41.762v12.812c0 6.42 3.95 12.37 11.122 16.754 3.48 2.128 7.537 3.765 11.943 4.86 1.439 1.37 3.117 2.649 5.027 3.816 6.818 4.169 15.836 6.465 25.393 6.465s18.575-2.296 25.393-6.465C86.05 75.62 90 69.67 90 63.25V51.202c0-4.097-1.611-8.001-4.64-11.431z" fill="#000" fill-rule="evenodd"/></symbol><symbol viewBox="0 -4.55 81.28 81.28" id="noun_bubbles_1119882" xmlns="http://www.w3.org/2000/svg"><path d="M40.919 22.803c-2.854 0-5.594.492-8.146 1.387a16.726 16.726 0 00-16.04-12C7.506 12.19 0 19.704 0 28.938c0 9.084 7.279 16.484 16.31 16.713a24.823 24.823 0 00-.076 1.838c0 13.611 11.074 24.684 24.686 24.684s24.685-11.072 24.685-24.684c0-13.612-11.074-24.686-24.686-24.686zM1 28.938C1 20.254 8.058 13.19 16.733 13.19a15.73 15.73 0 0115.103 11.352c-8.287 3.292-14.382 10.944-15.434 20.112C7.88 44.475 1 37.502 1 28.938zm39.919 42.234c-13.061 0-23.686-10.625-23.686-23.684 0-13.061 10.625-23.686 23.686-23.686 13.06 0 23.685 10.625 23.685 23.686 0 13.059-10.625 23.684-23.685 23.684z"/><path d="M40.201 29.859c-8.829 0-16.013 7.184-16.013 16.014a.5.5 0 001 0c0-8.279 6.734-15.014 15.013-15.014a.5.5 0 000-1zM68.346 0c-7.129 0-12.929 5.799-12.929 12.93 0 7.129 5.8 12.93 12.929 12.93 7.13 0 12.93-5.801 12.93-12.93 0-7.131-5.8-12.93-12.93-12.93zm0 24.859c-6.577 0-11.929-5.352-11.929-11.93 0-6.578 5.352-11.93 11.929-11.93 6.578 0 11.93 5.352 11.93 11.93 0 6.578-5.352 11.93-11.93 11.93z"/><path d="M67.79 4.215c-4.672 0-8.473 3.801-8.473 8.475a.5.5 0 001 0c0-4.121 3.353-7.475 7.473-7.475a.5.5 0 100-1zM16.472 16.92c-6.019 0-10.915 4.896-10.915 10.914a.5.5 0 101 0c0-5.467 4.448-9.914 9.915-9.914a.5.5 0 000-1z"/></symbol></svg>